# Exported from Wings 3D 2.0.4
mtllib gridcube.mtl
o Cube1
#8 vertices, 6 faces
v -10.00000000 0.0000000e+0 -10.00000000
v -10.00000000 0.0000000e+0 10.00000000
v -10.00000000 20.00000000 -10.00000000
v -10.00000000 20.00000000 10.00000000
v 10.00000000 0.0000000e+0 -10.00000000
v 10.00000000 0.0000000e+0 10.00000000
v 10.00000000 20.00000000 -10.00000000
v 10.00000000 20.00000000 10.00000000
vt 0.0000000e+0 0.0000000e+0
vt 0.0000000e+0 1.00000000
vt 0.0000000e+0 1.00000000
vt 8.3266727e-17 0.0000000e+0
vt 1.1102230e-16 1.00000000
vt 1.6653345e-16 0.0000000e+0
vt 2.7755576e-16 0.0000000e+0
vt 4.4408921e-16 0.0000000e+0
vt 4.4408921e-16 1.00000000
vt 1.00000000 1.6653345e-16
vt 1.00000000 1.00000000
vt 1.00000000 0.0000000e+0
vt 1.00000000 1.6653345e-16
vt 1.00000000 1.00000000
vn 0.0000000e+0 1.00000000 0.0000000e+0
vn 0.0000000e+0 0.0000000e+0 1.00000000
vn 1.00000000 0.0000000e+0 0.0000000e+0
vn 0.0000000e+0 1.00000000 0.0000000e+0
vn 0.0000000e+0 0.0000000e+0 -1.00000000
vn 1.00000000 0.0000000e+0 0.0000000e+0
vn 0.0000000e+0 -1.00000000 0.0000000e+0
vn 0.0000000e+0 0.0000000e+0 1.00000000
vn 1.00000000 0.0000000e+0 0.0000000e+0
vn 0.0000000e+0 -1.00000000 0.0000000e+0
vn 0.0000000e+0 0.0000000e+0 -1.00000000
vn 1.00000000 0.0000000e+0 0.0000000e+0
vn 0.0000000e+0 1.00000000 0.0000000e+0
vn 0.0000000e+0 0.0000000e+0 1.00000000
vn -1.00000000 0.0000000e+0 0.0000000e+0
vn 0.0000000e+0 1.00000000 0.0000000e+0
vn 0.0000000e+0 0.0000000e+0 -1.00000000
vn -1.00000000 0.0000000e+0 0.0000000e+0
vn 0.0000000e+0 -1.00000000 0.0000000e+0
vn 0.0000000e+0 0.0000000e+0 1.00000000
vn -1.00000000 0.0000000e+0 0.0000000e+0
vn 0.0000000e+0 -1.00000000 0.0000000e+0
vn 0.0000000e+0 0.0000000e+0 -1.00000000
vn -1.00000000 0.0000000e+0 0.0000000e+0
g Cube1_Cube1_auv
usemtl Cube1_auv
s 1
f 1/12/3 3/14/9 4/9/12 2/8/6
f 6/10/18 8/11/24 7/5/21 5/7/15
s 2
f 1/6/2 5/12/14 7/14/20 3/3/8
f 4/14/11 8/3/23 6/4/17 2/12/5
s 3
f 2/1/4 6/13/16 5/14/13 1/2/1
f 3/14/7 7/3/19 8/1/22 4/12/10
